<svg xmlns="http://www.w3.org/2000/svg" width="900" height="360"><rect width="900" height="360" fill="#0d1117"/><text x="45" y="55" fill="#f0f6fc" font-family="Arial" font-size="28" font-weight="700">Topic 05 · Bagging &amp; Random Forests</text><text x="45" y="90" fill="#8b949e" font-family="Arial" font-size="16">Many decorrelated trees → lower variance → stronger generalization</text><g stroke="#7ee787" stroke-width="4" fill="#7ee787"><line x1="150" y1="155" x2="110" y2="230"/><line x1="150" y1="155" x2="190" y2="230"/><circle cx="150" cy="145" r="11"/><circle cx="110" cy="240" r="11"/><circle cx="190" cy="240" r="11"/><line x1="350" y1="155" x2="310" y2="230"/><line x1="350" y1="155" x2="390" y2="230"/><circle cx="350" cy="145" r="11"/><circle cx="310" cy="240" r="11"/><circle cx="390" cy="240" r="11"/><line x1="550" y1="155" x2="510" y2="230"/><line x1="550" y1="155" x2="590" y2="230"/><circle cx="550" cy="145" r="11"/><circle cx="510" cy="240" r="11"/><circle cx="590" cy="240" r="11"/></g><path d="M650 195 H760" stroke="#58a6ff" stroke-width="5"/><polygon points="760,195 740,183 740,207" fill="#58a6ff"/><circle cx="805" cy="195" r="38" fill="#161b22" stroke="#58a6ff" stroke-width="4"/><text x="786" y="202" fill="#58a6ff" font-family="Arial" font-size="20">avg</text><text x="45" y="335" fill="#8b949e" font-family="Arial" font-size="15">bagging · OOB/CV · feature subsampling · permutation importance</text></svg>