<svg xmlns="http://www.w3.org/2000/svg" width="900" height="360" viewBox="0 0 900 360"><rect width="900" height="360" fill="#0d1117"/><text x="45" y="55" fill="#f0f6fc" font-family="Arial" font-size="28" font-weight="700">Topic 03 · Decision Tree vs k-NN</text><text x="45" y="90" fill="#8b949e" font-family="Arial" font-size="16">Two different inductive biases for nonlinear classification</text><rect x="55" y="130" width="340" height="170" rx="16" fill="#161b22" stroke="#30363d"/><text x="85" y="170" fill="#58a6ff" font-family="Arial" font-size="22">Decision Tree</text><line x1="225" y1="195" x2="225" y2="230" stroke="#7ee787" stroke-width="4"/><line x1="225" y1="230" x2="155" y2="270" stroke="#7ee787" stroke-width="4"/><line x1="225" y1="230" x2="295" y2="270" stroke="#7ee787" stroke-width="4"/><circle cx="225" cy="195" r="12" fill="#7ee787"/><circle cx="155" cy="270" r="12" fill="#7ee787"/><circle cx="295" cy="270" r="12" fill="#7ee787"/><rect x="505" y="130" width="340" height="170" rx="16" fill="#161b22" stroke="#30363d"/><text x="535" y="170" fill="#d2a8ff" font-family="Arial" font-size="22">k-Nearest Neighbors</text><circle cx="610" cy="225" r="9" fill="#58a6ff"/><circle cx="650" cy="250" r="9" fill="#58a6ff"/><circle cx="700" cy="215" r="9" fill="#f85149"/><circle cx="740" cy="250" r="9" fill="#f85149"/><circle cx="675" cy="235" r="24" fill="none" stroke="#d2a8ff" stroke-width="3" stroke-dasharray="5 5"/><text x="45" y="335" fill="#8b949e" font-family="Arial" font-size="15">scaling · depth / k · cross-validation · overfitting diagnostics</text></svg>